<!-- Generated by IcoMoon.io -->
<svg version="1.1" xmlns="http://www.w3.org/2000/svg" width="32" height="32" viewBox="0 0 32 32">
<title>solution2</title>
<path fill="#dc2521" d="M29.625 17.308c-0.703 0-1.273-0.57-1.273-1.273s0.57-1.273 1.273-1.273c0.703 0 1.273 0.57 1.273 1.273v0c-0.011 0.699-0.574 1.262-1.272 1.273h-0.001zM17.204 29.729c0 0.703-0.57 1.273-1.273 1.273s-1.273-0.57-1.273-1.273c0-0.703 0.57-1.273 1.273-1.273v0c0.001 0 0.002 0 0.003 0 0.702 0 1.271 0.569 1.271 1.27 0 0.001 0 0.002 0 0.003v-0zM11.8 10.426l7.088 3.544-2.959 1.479-7.087-3.544zM14.656 2.34c0-0.703 0.57-1.273 1.273-1.273s1.273 0.57 1.273 1.273c0 0.703-0.57 1.273-1.273 1.273-0 0-0 0-0 0h0c-0.001 0-0.002 0-0.003 0-0.701 0-1.27-0.568-1.27-1.27 0-0.001 0-0.003 0-0.004v0zM20.058 13.384l-7.087-3.509 2.958-1.479 7.088 3.509zM8.221 19.819v-7.054l7.191 3.613v7.087zM16.445 23.432v-7.088l3.096-1.548v2.374c0 0.285 0.231 0.516 0.516 0.516s0.516-0.231 0.516-0.516v0-2.856l3.096-1.548v7.054zM25.597 24.43c0.35 0.007 0.664 0.15 0.895 0.378l-0-0c0.229 0.229 0.371 0.545 0.371 0.895 0 0.699-0.566 1.265-1.265 1.265s-1.265-0.566-1.265-1.265c0-0.349 0.142-0.666 0.371-0.895v0c0.23-0.228 0.545-0.371 0.893-0.378l0.001-0zM7.155 26.597c-0.229 0.229-0.545 0.371-0.895 0.371-0.699 0-1.265-0.566-1.265-1.265 0-0.349 0.142-0.666 0.371-0.895v0c0.227-0.233 0.544-0.378 0.895-0.378s0.668 0.145 0.894 0.378l0 0c0.223 0.231 0.361 0.547 0.361 0.895s-0.138 0.663-0.362 0.895l0-0zM2.237 17.308c-0 0-0 0-0 0-0.703 0-1.273-0.57-1.273-1.273s0.57-1.273 1.273-1.273c0.703 0 1.273 0.57 1.273 1.273v0c0 0.001 0 0.002 0 0.003 0 0.701-0.569 1.27-1.27 1.27-0.001 0-0.002 0-0.003 0h0zM5.367 7.26c-0.223-0.231-0.361-0.547-0.361-0.895s0.138-0.663 0.362-0.895l-0 0c0.227-0.234 0.544-0.379 0.895-0.379s0.668 0.145 0.894 0.378l0 0c0.229 0.229 0.371 0.545 0.371 0.895 0 0.699-0.566 1.265-1.265 1.265-0.349 0-0.666-0.142-0.895-0.371v0zM24.705 5.471c0.227-0.234 0.544-0.379 0.894-0.379s0.668 0.145 0.894 0.378l0 0c0.229 0.229 0.371 0.545 0.371 0.895 0 0.699-0.566 1.265-1.265 1.265s-1.265-0.566-1.265-1.265c0-0.349 0.142-0.666 0.371-0.895v0zM29.626 13.729c-0.001 0-0.003 0-0.004 0-1.087 0-1.996 0.758-2.229 1.774l-0.003 0.015h-2.684v-3.613c0.001-0.007 0.001-0.014 0.001-0.022 0-0.043-0.013-0.084-0.036-0.117l0 0.001v-0.034c0-0.034-0.034-0.068-0.034-0.103v-0.034c-0.068 0-0.103-0.034-0.135-0.034l-0.034-0.035c-0.035-0.034-0.069-0.034-0.104-0.068l-2.099-1.067 2.099-2.099c0.339 0.216 0.753 0.345 1.197 0.345 0.015 0 0.029-0 0.044-0l-0.002 0c0.634-0.006 1.206-0.268 1.617-0.688l0-0c0.418-0.418 0.677-0.996 0.677-1.634 0-1.277-1.035-2.312-2.312-2.312-0.638 0-1.216 0.259-1.635 0.677v0c-0.415 0.415-0.671 0.987-0.671 1.62 0 0.459 0.135 0.886 0.367 1.244l-0.005-0.009-2.34 2.34-4.851-2.443v-2.89c1.032-0.243 1.789-1.157 1.789-2.247 0-1.273-1.032-2.305-2.305-2.305s-2.305 1.032-2.305 2.305c0 1.090 0.757 2.004 1.773 2.244l0.016 0.003v2.89l-4.851 2.443-2.34-2.34c0.22-0.347 0.35-0.769 0.35-1.222 0-1.273-1.032-2.305-2.305-2.305s-2.305 1.032-2.305 2.305c0 0.639 0.26 1.217 0.68 1.634l0 0c0.412 0.42 0.983 0.682 1.616 0.688h0.001c0.006 0 0.013 0 0.020 0 0.451 0 0.872-0.128 1.229-0.35l-0.010 0.006 2.099 2.099-2.099 1.067c-0.034 0-0.069 0.034-0.104 0.068l-0.034 0.035c-0.034 0.034-0.068 0.068-0.068 0.103v0.034c0 0.034-0.034 0.068-0.034 0.104v0.034c0 0.034-0.034 0.068-0.034 0.135v3.613h-2.687c-0.243-1.032-1.157-1.789-2.246-1.789-1.273 0-2.305 1.032-2.305 2.305s1.032 2.305 2.305 2.305c1.090 0 2.003-0.756 2.243-1.773l0.003-0.016h2.684v3.716c0.023 0.023 0.045 0.045 0.068 0.068l0.069 0.069 0.034 0.035 0.034 0.034 0.035 0.034h0.034l2.099 1.066-2.099 2.099c-0.349-0.225-0.776-0.358-1.233-0.358-1.272 0-2.303 1.031-2.303 2.303 0 0.638 0.26 1.216 0.68 1.633l0 0c0.414 0.413 0.986 0.669 1.617 0.669 1.264 0 2.289-1.025 2.289-2.289 0-0.459-0.135-0.886-0.368-1.245l0.005 0.009 2.34-2.34 4.851 2.443v2.891c-1.033 0.243-1.79 1.157-1.79 2.247 0 1.273 1.032 2.305 2.305 2.305s2.305-1.032 2.305-2.305c0-1.090-0.757-2.004-1.774-2.244l-0.016-0.003v-2.89l4.852-2.443 2.34 2.34c-0.219 0.349-0.348 0.774-0.348 1.229 0 0.632 0.251 1.206 0.658 1.628l-0.001-0.001c0.409 0.425 0.982 0.688 1.617 0.688s1.208-0.264 1.617-0.688l0.001-0.001c0.415-0.42 0.671-0.997 0.671-1.634s-0.256-1.215-0.671-1.635l0 0c-0.415-0.415-0.988-0.671-1.62-0.671-0.459 0-0.886 0.135-1.244 0.367l0.009-0.005-2.099-2.099 2.099-1.066h0.034l0.068-0.068 0.034-0.035 0.035-0.034 0.034-0.034c0-0 0-0 0-0 0-0.019 0.015-0.034 0.034-0.034 0 0 0 0 0 0h-0c0-0 0-0 0-0 0-0.019 0.015-0.034 0.034-0.034 0 0 0 0 0 0h-0v-3.783h2.684c0.24 1.033 1.153 1.792 2.242 1.792 1.27 0 2.299-1.029 2.299-2.299 0-0.003 0-0.006-0-0.009v0c0.002-0.034 0.003-0.074 0.003-0.114 0-1.203-0.969-2.18-2.169-2.191h-0.001z"></path>
</svg>
