<!-- Generated by IcoMoon.io -->
<svg version="1.1" xmlns="http://www.w3.org/2000/svg" width="32" height="32" viewBox="0 0 32 32">
<title>solution1</title>
<path fill="#909090" d="M23.913 20.713c-2.247 0-4.068 1.821-4.068 4.068s1.821 4.068 4.068 4.068c2.247 0 4.068-1.821 4.068-4.068v0c-0.003-2.246-1.822-4.065-4.068-4.068h-0zM23.913 28.056c-1.808 0-3.274-1.466-3.274-3.274s1.466-3.274 3.274-3.274c1.808 0 3.274 1.466 3.274 3.274v0c-0.003 1.807-1.467 3.27-3.274 3.273h-0z"></path>
<path fill="#909090" d="M23.913 20.588c2.316 0 4.193 1.877 4.193 4.193s-1.877 4.193-4.193 4.193c-2.316 0-4.193-1.877-4.193-4.193v0c0.002-2.315 1.878-4.191 4.193-4.193h0zM23.913 28.724c2.178 0 3.943-1.765 3.943-3.943s-1.765-3.943-3.943-3.943c-2.178 0-3.943 1.765-3.943 3.943v0c0.002 2.177 1.766 3.941 3.943 3.943h0zM23.913 21.38c1.876 0 3.397 1.521 3.397 3.397s-1.521 3.397-3.397 3.397c-1.876 0-3.397-1.521-3.397-3.397v0c0.004-1.874 1.523-3.392 3.397-3.395h0zM23.913 27.929c1.738 0 3.147-1.409 3.147-3.147s-1.409-3.147-3.147-3.147c-1.738 0-3.147 1.409-3.147 3.147v0c0.003 1.737 1.41 3.145 3.147 3.148h0z"></path>
<path fill="#909090" d="M14.362 21.356c0.219 0 0.397-0.178 0.397-0.397v0-17.527c0-0.219-0.178-0.397-0.397-0.397v0h-1.136l-1.149-1.325c-0.861-0.974-2.113-1.585-3.508-1.585-0.014 0-0.028 0-0.043 0h-2.173c-0.012-0-0.026-0-0.039-0-1.395 0-2.647 0.611-3.503 1.579l-0.004 0.005-1.149 1.326h-1.136c-0.219 0-0.397 0.178-0.397 0.397 0 0 0 0 0 0.001v-0 17.529c0 0.219 0.178 0.397 0.397 0.397v0h0.963v7.423c-0.66 0.073-1.17 0.626-1.173 1.299v1.399c0 0.219 0.178 0.397 0.397 0.397v0h2.348c0.219 0 0.397-0.178 0.397-0.397v0-1.399c-0.003-0.673-0.513-1.226-1.167-1.298l-0.006-0.001v-6.16l1.774 3.678c0.066 0.134 0.201 0.224 0.358 0.225h0.718v1.986c0.002 0.218 0.178 0.395 0.396 0.397h3.747c0.218-0.002 0.395-0.178 0.397-0.396v-1.986h0.718c0.156-0.001 0.291-0.091 0.356-0.222l0.001-0.002 1.862-3.859v6.341c-0.66 0.073-1.169 0.626-1.173 1.299v1.399c0 0.219 0.178 0.397 0.397 0.397v0h2.348c0.219 0 0.397-0.178 0.397-0.397v0-1.399c-0.003-0.673-0.513-1.226-1.167-1.298l-0.006-0.001v-7.424zM3.406 2.229c0.715-0.805 1.752-1.311 2.908-1.311 0.014 0 0.028 0 0.042 0l-0.002-0h2.176c0.012-0 0.026-0 0.040-0 1.156 0 2.193 0.505 2.904 1.307l0.004 0.004 0.699 0.806h-9.468zM0.919 3.828h13.044v16.735h-13.044zM2.658 30.081v0.999h-1.552v-0.999c0-0.288 0.234-0.521 0.522-0.521h0.509c0.288 0 0.521 0.233 0.522 0.521v0zM8.874 28.112h-2.951v-1.589h2.951zM10.136 25.73h-5.476l-2.109-4.374h9.694zM13.777 30.081v0.999h-1.552v-0.999c0.001-0.288 0.234-0.521 0.521-0.521h0.509c0 0 0 0 0.001 0 0.288 0 0.521 0.233 0.522 0.521v0z"></path>
<path fill="#909090" d="M14.174 32h-2.348c-0.288-0.001-0.521-0.234-0.522-0.521v-1.399c0.001-0.699 0.502-1.281 1.164-1.407l0.009-0.001v-5.685l-1.623 3.366c-0.087 0.176-0.264 0.294-0.469 0.295h-0.593v1.861c-0.001 0.288-0.234 0.521-0.521 0.522h-3.747c-0.288-0.001-0.521-0.234-0.522-0.521v-1.86h-0.592c-0.206-0.001-0.383-0.12-0.469-0.292l-0.001-0.003-1.537-3.186v5.507c0.671 0.128 1.172 0.709 1.173 1.408v1.399c-0.001 0.288-0.234 0.521-0.521 0.522h-2.348c-0.288-0.001-0.521-0.234-0.522-0.521v-1.399c0.001-0.699 0.502-1.281 1.164-1.407l0.009-0.001v-7.19h-0.837c-0.288-0.001-0.521-0.234-0.522-0.522v-17.529c0.001-0.288 0.234-0.521 0.521-0.522h1.078l1.111-1.283c0.884-1 2.17-1.628 3.602-1.628 0.014 0 0.028 0 0.042 0h2.173c0.012-0 0.026-0 0.040-0 1.433 0 2.719 0.628 3.598 1.623l1.116 1.288h1.080c0.288 0.001 0.521 0.234 0.522 0.521v17.529c-0 0.288-0.234 0.521-0.521 0.522h-0.839v7.19c0.671 0.128 1.172 0.709 1.173 1.408v1.399c-0.001 0.287-0.235 0.52-0.522 0.52h-0zM12.492 22.386l0.237 0.054v6.452l-0.111 0.012c-0.598 0.065-1.060 0.566-1.062 1.176v1.399c0 0.15 0.122 0.271 0.272 0.272h2.348c0.15-0 0.271-0.122 0.272-0.272v-1.399c-0.001-0.61-0.463-1.112-1.056-1.176l-0.005-0-0.111-0.012v-7.659h1.088c0.15-0 0.271-0.122 0.272-0.272v-17.529c-0-0.15-0.122-0.271-0.272-0.272h-1.193l-1.186-1.369c-0.838-0.947-2.056-1.542-3.413-1.542-0.014 0-0.028 0-0.043 0l0.002-0h-2.176c-0.012-0-0.026-0-0.040-0-1.357 0-2.575 0.594-3.409 1.536l-0.004 0.005-1.186 1.369h-1.192c-0.15 0-0.271 0.122-0.272 0.272v17.529c0 0.15 0.122 0.271 0.272 0.272h1.088v7.66l-0.111 0.012c-0.598 0.065-1.060 0.566-1.062 1.176v1.399c0 0.15 0.122 0.271 0.272 0.272h2.348c0.15-0 0.271-0.122 0.272-0.272v-1.399c-0.001-0.61-0.463-1.112-1.056-1.176l-0.005-0-0.111-0.012v-6.272l0.237-0.054 1.774 3.678c0.045 0.092 0.138 0.154 0.245 0.154h0.843v2.111c0 0.15 0.122 0.271 0.272 0.272h3.747c0.15-0 0.271-0.122 0.272-0.272v-2.111h0.843c0.107-0 0.2-0.062 0.244-0.152l0.001-0.002zM13.902 31.206h-1.802v-1.125c0.002-0.356 0.29-0.644 0.646-0.646h0.509c0.356 0.002 0.644 0.29 0.646 0.646v0zM12.351 30.956h1.302v-0.875c-0-0.219-0.178-0.396-0.397-0.396 0 0 0 0 0 0h-0.509c-0.219 0-0.396 0.177-0.397 0.396v0zM2.783 31.206h-1.802v-1.125c0.002-0.356 0.29-0.644 0.646-0.646h0.509c0.356 0.002 0.644 0.29 0.646 0.646v0zM1.231 30.956h1.301v-0.875c-0-0.219-0.178-0.396-0.397-0.396 0 0 0 0 0 0h-0.509c-0.219 0-0.396 0.177-0.397 0.396v0zM8.999 28.236h-3.202v-1.838h3.201zM6.048 27.987h2.702v-1.339h-2.702zM10.216 25.852h-5.634l-2.229-4.621h10.091zM4.738 25.602h5.319l1.989-4.122h-9.296zM14.089 20.687h-13.295v-16.985h13.296zM1.043 20.437h12.797v-16.485h-12.796zM12.449 3.16h-10.015l0.878-1.013c0.737-0.832 1.809-1.354 3.002-1.354 0.014 0 0.028 0 0.042 0l-0.002-0h2.176c0.012-0 0.026-0 0.040-0 1.193 0 2.265 0.522 2.998 1.35l0.004 0.004zM2.981 2.91h8.921l-0.519-0.599c-0.691-0.779-1.695-1.268-2.813-1.268-0.014 0-0.028 0-0.042 0l0.002-0h-2.176c-0.012-0-0.026-0-0.039-0-1.118 0-2.122 0.488-2.81 1.264l-0.003 0.004z"></path>
<path fill="#909090" d="M10.548 13.767h-6.214c-0.219 0-0.397 0.178-0.397 0.397v0 3.671c0 0.219 0.178 0.397 0.397 0.397v0h6.214c0.219 0 0.397-0.178 0.397-0.397v0-3.671c0-0.219-0.178-0.397-0.397-0.397v0zM10.151 17.438h-5.418v-2.877h5.417z"></path>
<path fill="#909090" d="M4.334 13.642h6.214c0.288 0.001 0.521 0.234 0.522 0.521v3.671c-0.001 0.288-0.234 0.521-0.521 0.522h-6.214c-0.288-0.001-0.521-0.234-0.522-0.521v-3.671c0.001-0.288 0.234-0.521 0.521-0.522h0zM10.545 18.107c0.15-0 0.271-0.122 0.272-0.272v-3.672c-0-0.15-0.122-0.271-0.272-0.272h-6.211c-0.15 0-0.271 0.122-0.272 0.272v3.671c0 0.15 0.122 0.271 0.272 0.272h0zM4.605 14.436h5.67v3.127h-5.667zM10.023 14.686h-5.165v2.628h5.168z"></path>
<path fill="#909090" d="M31.478 2.822h-5.729v-2.301c0-0.219-0.178-0.397-0.397-0.397-0 0-0 0-0.001 0h-2.877c-0.219 0-0.397 0.178-0.397 0.397v0 2.301h-2.612c-1.69 0.002-3.059 1.371-3.061 3.061v10.041c-0.288 0.788-0.455 1.698-0.455 2.647 0 0.002 0 0.003 0 0.005v-0 12.902c0 0.219 0.178 0.397 0.397 0.397v0h15.131c0.219 0 0.397-0.178 0.397-0.397v0-12.901c-0.003-3.745-2.588-6.886-6.071-7.737l-0.055-0.011v-4.696h5.73c0.218-0.002 0.395-0.178 0.397-0.396v-2.515c0-0.001 0-0.002 0-0.003 0-0.219-0.178-0.397-0.397-0.397-0 0-0 0-0.001 0h0zM17.199 5.884c0.001-1.251 1.016-2.266 2.267-2.267h2.612v1.725h-1.732c-0.71 0.001-1.285 0.577-1.285 1.286v5.636c-0.733 0.571-1.35 1.246-1.841 2.011l-0.019 0.032zM22.077 6.134v4.696c-0.842 0.204-1.584 0.515-2.26 0.925l0.035-0.020v-5.106c0-0.272 0.221-0.492 0.493-0.493h0zM31.081 31.081h-14.337v-12.504c0-0.132 0.011-0.263 0.017-0.395h14.302c0.007 0.131 0.017 0.262 0.017 0.395zM30.981 17.389h-14.135c0.511-2.954 2.771-5.264 5.657-5.841l0.046-0.008c0.184-0.037 0.321-0.198 0.322-0.39v-10.231h2.084v10.231c0.001 0.192 0.138 0.353 0.319 0.39l0.003 0c2.932 0.585 5.192 2.895 5.697 5.806l0.006 0.043zM31.081 5.342h-5.333v-1.725h5.333z"></path>
<path fill="#909090" d="M22.474 0h2.877c0.288 0.001 0.521 0.234 0.522 0.521v2.177h5.605c0.288 0.001 0.521 0.235 0.521 0.523 0 0.001 0 0.001 0 0.002v-0 2.519c-0.001 0.288-0.234 0.521-0.521 0.522h-5.604v4.471c3.545 0.909 6.124 4.076 6.125 7.844v12.901c-0.001 0.288-0.234 0.521-0.521 0.522h-15.13c-0.288-0.001-0.521-0.234-0.522-0.521v-12.901c0-0.002 0-0.004 0-0.007 0-0.956 0.167-1.872 0.472-2.723l-0.018 0.056v-10.021c0.002-1.759 1.427-3.184 3.185-3.186h2.487v-2.177c0.001-0.288 0.234-0.521 0.521-0.522h0zM31.478 6.011c0.15-0 0.271-0.122 0.272-0.272v-2.517c-0-0.15-0.122-0.271-0.272-0.272h-5.854v-2.429c-0-0.15-0.122-0.271-0.272-0.272h-2.877c-0.15 0-0.271 0.122-0.272 0.272v2.426h-2.737c-1.621 0.002-2.934 1.315-2.936 2.936v10.064l-0.007 0.020c-0.285 0.777-0.45 1.674-0.45 2.61 0 0 0 0 0 0v0 12.901c0 0.15 0.122 0.271 0.272 0.272h15.133c0.15-0 0.271-0.122 0.272-0.272v-12.901c0-0.008 0-0.018 0-0.029 0-3.681-2.548-6.766-5.977-7.587l-0.053-0.011-0.096-0.022v-4.918zM22.746 0.794h2.333v10.356c0 0.132 0.094 0.242 0.219 0.267l0.002 0c2.983 0.595 5.283 2.945 5.796 5.907l0.006 0.043 0.024 0.145h-14.428l0.024-0.145c0.519-3.006 2.819-5.356 5.755-5.942l0.047-0.008c0.127-0.025 0.221-0.135 0.221-0.267v-0zM24.83 1.044h-1.834v10.107c-0 0.253-0.181 0.464-0.42 0.512l-0.003 0.001c-2.829 0.57-5.019 2.769-5.57 5.557l-0.007 0.045h13.835c-0.558-2.831-2.748-5.029-5.53-5.592l-0.045-0.008c-0.242-0.048-0.423-0.259-0.423-0.512v-0zM19.466 3.491h2.736v1.975h-1.857c-0.641 0.001-1.161 0.52-1.161 1.161v5.7l-0.050 0.037c-0.721 0.561-1.329 1.227-1.812 1.98l-0.019 0.031-0.23 0.362v-8.854c0.001-1.321 1.072-2.391 2.393-2.392h0zM21.953 3.741h-2.487c-1.182 0.001-2.141 0.96-2.142 2.142v8.017c0.462-0.649 0.993-1.207 1.594-1.681l0.017-0.013v-5.578c0.001-0.779 0.632-1.41 1.411-1.411h1.607zM25.624 3.491h5.582v1.975h-5.583zM30.957 3.741h-5.083v1.475h5.083zM20.345 6.011h1.857v4.918l-0.096 0.022c-0.829 0.201-1.559 0.507-2.224 0.911l0.035-0.019-0.189 0.112v-5.326c0-0.341 0.277-0.617 0.618-0.617v0zM21.952 6.26h-1.607c-0.203 0-0.367 0.165-0.368 0.368v4.89c0.568-0.326 1.225-0.596 1.919-0.775l0.056-0.012zM16.643 18.059h14.537l0.006 0.118c0 0.031 0.003 0.061 0.006 0.092 0.006 0.1 0.012 0.204 0.012 0.309v12.629h-14.587v-12.63c0-0.105 0.006-0.209 0.012-0.309 0-0.030 0.003-0.061 0.006-0.092zM30.946 18.309h-14.066c-0.006 0.092-0.011 0.18-0.011 0.27v12.379h14.087v-12.38c0-0.090-0.007-0.178-0.011-0.269z"></path>
</svg>
