<!-- Generated by IcoMoon.io -->
<svg version="1.1" xmlns="http://www.w3.org/2000/svg" width="32" height="32" viewBox="0 0 32 32">
<title>store</title>
<path d="M25.776 27.983h-11.896v-7.931h-1.983v7.931h-5.948v-7.931h-1.983v7.931c0 1.095 0.888 1.983 1.983 1.983v0h19.827c1.095 0 1.983-0.888 1.983-1.983v0-7.931h-1.983z"></path>
<path d="M31.516 11.397l-4.045-8.089c-0.332-0.657-1.001-1.1-1.774-1.101h-19.669c-0.773 0.001-1.443 0.444-1.769 1.089l-0.005 0.011-4.045 8.089c-0.131 0.258-0.208 0.562-0.208 0.884 0 0.003 0 0.006 0 0.008v-0 3.053c0 0.001 0 0.002 0 0.004 0 0.483 0.172 0.925 0.459 1.269l-0.003-0.003c0.853 0.974 2.099 1.586 3.489 1.586 0.007 0 0.015-0 0.022-0h-0.001c0.002 0 0.005 0 0.007 0 1.13 0 2.166-0.401 2.975-1.067l-0.008 0.006c0.803 0.662 1.841 1.064 2.974 1.064s2.172-0.402 2.982-1.070l-0.008 0.006c0.803 0.662 1.841 1.064 2.974 1.064s2.172-0.402 2.982-1.070l-0.008 0.006c0.802 0.662 1.841 1.064 2.974 1.064s2.172-0.402 2.982-1.070l-0.008 0.006c0.801 0.662 1.838 1.063 2.97 1.063 1.393 0 2.643-0.608 3.5-1.574l0.004-0.005c0.288-0.34 0.464-0.784 0.466-1.268v-3.064c0-0.002 0-0.005 0-0.008 0-0.322-0.077-0.626-0.213-0.895l0.005 0.011zM27.759 16.215c-0.889-0.002-1.675-0.44-2.156-1.112l-0.005-0.008-0.813-1.11-0.803 1.11c-0.495 0.668-1.28 1.097-2.166 1.097s-1.671-0.429-2.161-1.090l-0.005-0.007-0.813-1.11-0.803 1.11c-0.495 0.668-1.28 1.097-2.166 1.097s-1.671-0.429-2.161-1.090l-0.005-0.007-0.813-1.11-0.807 1.11c-0.495 0.668-1.28 1.097-2.166 1.097s-1.671-0.429-2.161-1.090l-0.005-0.007-0.813-1.11-0.814 1.11c-0.486 0.68-1.272 1.118-2.161 1.12h-0c-0.010 0-0.021 0-0.032 0-0.774 0-1.47-0.336-1.949-0.87l-0.002-0.002v-3.053l4.045-8.099h19.669l4.045 8.089v3.034c-0.486 0.552-1.194 0.9-1.982 0.902h-0z"></path>
</svg>
